<svg enable-background="new 0 0 64 64" viewBox="0 0 64 64" xmlns="http://www.w3.org/2000/svg"><g transform="translate(0 -1)"><path id="Shape" d="m44.065 11.073c-.319-1.78-3.788-2.042-4.415-.365 1.479-.24 2.995-.114 4.415.365z"/><path d="m10.499 49.419c12.892 1.825 9.937 7.986 21.985 6.845 6.707-.757 12.868-4.056 17.216-9.219-14.147-.856-26.538-7.29-37.205-5.705-4.803 3.423-9.823 6.629-12.299 8.682 1.495-.603 4.667-1.402 10.303-.603z"/><path d="m21.383 39.276c.617-5.066 3.092-18.654 12.22-25.237-4.952 1.141-10.976 3.582-14.478 8.625-3.936 5.579-5.339 13.189-5.773 16.292 2.681-.179 5.373-.072 8.031.32z"/><path d="m47.773 44.593c2.704.285 4.94.24 8.534.536 3.423.285 4.666.73 5.705.103.613-.443 1.004-1.129 1.072-1.883.374-2.054.531-4.142.468-6.229 0-11.101-5.705-19.008-17.114-22.967 6.834 8.466 3.012 24.655 1.335 30.44z"/><path d="m23.642 39.561c4.678.833 13.098 3.423 21.837 4.746 1.483-5.077 6.629-25.374-3.959-31.341-13.919 2.796-17.193 20.811-17.878 26.595z"/></g></svg>