<svg enable-background="new 0 0 512 512" viewBox="0 0 512 512" xmlns="http://www.w3.org/2000/svg"><g><path d="m286 512h60c8.291 0 15-6.709 15-15 0-62.256 14.268-111.083 29.37-161.708 15.059-50.479 30.63-102.671 30.63-169.292 0-31.685-8.013-57.089-15.747-80.673-7.324-22.339-14.253-43.432-14.253-70.327 0-8.291-6.709-15-15-15h-240c-8.291 0-15 6.709-15 15 0 26.895-6.929 47.988-14.253 70.327-7.734 23.584-15.747 48.988-15.747 80.673 0 66.621 15.571 118.813 30.63 169.292 15.102 50.625 29.37 99.452 29.37 161.708 0 8.291 6.709 15 15 15h60c8.291 0 15-6.709 15-15v-301c0-8.276 6.724-15 15-15s15 6.724 15 15v301c0 8.291 6.709 15 15 15z"/></g></svg>