<?xml version="1.0" encoding="iso-8859-1"?>
<!-- Generator: Adobe Illustrator 19.0.0, SVG Export Plug-In . SVG Version: 6.00 Build 0)  -->
<svg version="1.1" id="Capa_1" xmlns="http://www.w3.org/2000/svg" xmlns:xlink="http://www.w3.org/1999/xlink" x="0px" y="0px"
	 viewBox="0 0 296.236 296.236" style="enable-background:new 0 0 296.236 296.236;" xml:space="preserve">
<g>
	<path d="M289.941,160.434c-4.063-3.77-9.936-6.39-17.457-7.789c-25.156-4.678-44.832-11.033-60.486-17.794L196.08,163.05
		c-1.471,2.604-4.182,4.068-6.975,4.068c-1.332,0-2.682-0.333-3.924-1.034c-3.848-2.172-5.207-7.052-3.035-10.899l15.381-27.245
		c-4.258-2.237-8.145-4.471-11.703-6.66l-23.178,25.761c-1.58,1.756-3.762,2.649-5.951,2.649c-1.906,0-3.818-0.678-5.348-2.053
		c-3.285-2.955-3.551-8.014-0.596-11.298l21.633-24.044c-2.752-1.982-5.258-3.857-7.547-5.573
		c-6.838-5.126-12.412-9.293-18.053-11.514c-22.414-34.187-30.93-34.195-34.35-34.195c-0.209,0-0.416,0.006-0.621,0.018
		c-8.844,0.491-14.023,10.197-19.795,37.09c-1.037,4.834-1.953,9.633-2.727,13.961c-2.168,0.11-4.439,0.173-6.834,0.173
		c-36.594,0-45.779-23.519-46.127-24.449c-0.951-2.709-3.279-4.7-6.103-5.22c-2.818-0.518-5.705,0.514-7.559,2.707
		c-0.748,0.886-17.717,21.352-21.672,55.558c7.615-0.593,20.641-0.668,35.043,3.344c20.457,5.695,47.549,20.907,61.328,60.878
		c6.377-0.817,13.08-1.356,20.641-1.356c17.193,0,37.344,1.997,56.832,3.928c20.016,1.983,40.711,4.034,58.943,4.034
		c4.068,0,7.953-0.104,11.549-0.307c8.6-0.486,16.949-2.641,24.324-5.929c-6.25,8.834-15.838,13.781-27.916,13.781H20.686
		l0.781-8.11c6.559,0.785,12.881,1.18,19.131,1.18c14.779,0,26.973-2.189,38.764-4.306c0.648-0.116,1.295-0.232,1.941-0.348
		c-9.443-25.346-26.094-41.5-49.553-48.032c-13.916-3.875-26.281-3.208-31.734-2.605c-0.326,24.329,4.52,41.357,6.129,46.309
		l-2.228,23.146c-0.217,2.245,0.525,4.477,2.041,6.146c1.516,1.669,3.666,2.621,5.922,2.621h229.863
		c14.584,0,27.723-5.521,36.994-15.548c7.986-8.634,12.92-20.297,14.514-34.11c1.703-3.157,2.734-6.442,2.945-9.759
		C296.568,169.981,294.346,164.521,289.941,160.434z M129.123,97.741c-0.008,0.015-0.018,0.027-0.023,0.043
		c-0.627,0.917-6.141,8.267-23.18,12.124c2.752-14.344,5.775-25.58,8.1-30.998C117.467,82.134,122.824,88.702,129.123,97.741z"/>
</g>
<g>
</g>
<g>
</g>
<g>
</g>
<g>
</g>
<g>
</g>
<g>
</g>
<g>
</g>
<g>
</g>
<g>
</g>
<g>
</g>
<g>
</g>
<g>
</g>
<g>
</g>
<g>
</g>
<g>
</g>
</svg>
