<?xml version="1.0" encoding="iso-8859-1"?>
<!-- Generator: Adobe Illustrator 19.0.0, SVG Export Plug-In . SVG Version: 6.00 Build 0)  -->
<svg version="1.1" xmlns="http://www.w3.org/2000/svg" xmlns:xlink="http://www.w3.org/1999/xlink" x="0px" y="0px"
	 viewBox="0 0 511.97 511.97" style="enable-background:new 0 0 511.97 511.97;" xml:space="preserve">
<g>
	<g>
		<path d="M431.985,47.985h-352c-8.832,0-16,7.168-16,16v32c0,8.832,7.168,16,16,16h352c8.832,0,16-7.168,16-16v-32
			C447.985,55.153,440.817,47.985,431.985,47.985z"/>
	</g>
</g>
<g>
	<g>
		<path d="M59.793,143.985l-14.784,62.752c21.824,2.208,39.968-0.832,53.216-10.464c18.688-13.568,25.632-36.8,28.224-52.288H59.793
			z"/>
	</g>
</g>
<g>
	<g>
		<path d="M452.177,143.985h-66.656c2.592,15.488,9.536,38.72,28.224,52.288c13.248,9.632,31.36,12.704,53.184,10.496
			L452.177,143.985z"/>
	</g>
</g>
<g>
	<g>
		<path d="M511.537,396.337l-37.248-158.24c-6.688,0.832-13.504,1.888-19.712,1.888c-23.392,0-43.424-6.016-59.84-17.984
			c-29.984-21.92-38.816-57.408-41.472-78.016h-81.28v80c0,8.832-7.168,16-16,16c-8.832,0-16-7.168-16-16v-80h-81.28
			c-2.656,20.608-11.488,56.096-41.472,78.016c-16.416,12-36.416,17.984-59.84,17.984c-6.208,0-13.056-1.056-19.744-1.888
			L0.433,396.337c-2.016,8.512,3.2,17.056,11.68,19.168l192,48c7.68,1.856,15.488-2.016,18.592-9.216l33.28-77.664l33.28,77.696
			c2.592,5.952,8.448,9.664,14.72,9.664c1.28,0,2.592-0.16,3.872-0.48l192-48C508.337,413.393,513.553,404.849,511.537,396.337z"/>
	</g>
</g>
<g>
</g>
<g>
</g>
<g>
</g>
<g>
</g>
<g>
</g>
<g>
</g>
<g>
</g>
<g>
</g>
<g>
</g>
<g>
</g>
<g>
</g>
<g>
</g>
<g>
</g>
<g>
</g>
<g>
</g>
</svg>
